<svg version="1.1" id="Layer_1" xmlns="http://www.w3.org/2000/svg" xmlns:xlink="http://www.w3.org/1999/xlink" x="0px" y="0px"
	 width="100%" viewBox="0 0 500 500" enable-background="new 0 0 500 500" xml:space="preserve">
<path fill="#000000" opacity="1.000000" stroke="none" 
	d="
M444.000000,501.000000 
	C296.000031,501.000000 148.500076,501.000000 1.000079,501.000000 
	C1.000053,334.333405 1.000053,167.666809 1.000026,1.000169 
	C167.666550,1.000112 334.333099,1.000112 500.999756,1.000056 
	C500.999817,167.666519 500.999817,334.333038 500.999908,500.999756 
	C482.166656,501.000000 463.333344,501.000000 444.000000,501.000000 
M127.327782,320.000854 
	C129.740631,320.000854 132.153488,320.000854 134.566330,320.000854 
	C134.543427,319.760101 134.520523,319.519348 134.497620,319.278595 
	C125.184753,319.278595 115.871895,319.278595 106.559029,319.278595 
	C106.558746,319.519867 106.558472,319.761139 106.558189,320.002411 
	C113.163567,320.002411 119.768936,320.002411 127.327782,320.000854 
M249.007980,218.006241 
	C242.759064,218.006241 236.510147,218.006241 230.261215,218.006241 
	C230.263794,218.252182 230.266373,218.498138 230.268936,218.744080 
	C237.912811,218.744080 245.556702,218.744080 253.200577,218.744080 
	C253.201691,218.500107 253.202820,218.256149 253.203934,218.012177 
	C252.089005,218.012177 250.974060,218.012177 249.007980,218.006241 
z"/>
<path fill="#605F5E" opacity="1.000000" stroke="none" 
	d="
M126.851044,320.001648 
	C119.768936,320.002411 113.163567,320.002411 106.558189,320.002411 
	C106.558472,319.761139 106.558746,319.519867 106.559029,319.278595 
	C115.871895,319.278595 125.184753,319.278595 134.497620,319.278595 
	C134.520523,319.519348 134.543427,319.760101 134.566330,320.000854 
	C132.153488,320.000854 129.740631,320.000854 126.851044,320.001648 
z"/>
<path fill="#6F6E6C" opacity="1.000000" stroke="none" 
	d="
M249.433563,218.009216 
	C250.974060,218.012177 252.089005,218.012177 253.203934,218.012177 
	C253.202820,218.256149 253.201691,218.500107 253.200577,218.744080 
	C245.556702,218.744080 237.912811,218.744080 230.268936,218.744080 
	C230.266373,218.498138 230.263794,218.252182 230.261215,218.006241 
	C236.510147,218.006241 242.759064,218.006241 249.433563,218.009216 
z"/>
</svg>